<svg width="44" height="44" viewBox="0 0 44 44" fill="none" xmlns="http://www.w3.org/2000/svg">
<g clip-path="url(#clip0)" filter="url(#filter0_d)">
<path d="M21.7014 0.895935C12.0519 0.895935 4.20142 8.74643 4.20142 18.3959C4.20142 28.0454 12.0519 35.8959 21.7014 35.8959C31.3509 35.8959 39.2014 28.0454 39.2014 18.3959C39.2014 8.74643 31.3509 0.895935 21.7014 0.895935ZM30.7798 18.8778L17.9465 27.6278C17.8479 27.6949 17.733 27.7293 17.6181 27.7293C17.5247 27.7293 17.4308 27.7071 17.3457 27.6616C17.1543 27.5607 17.0347 27.3624 17.0347 27.1459V9.64594C17.0347 9.42952 17.1543 9.23118 17.3457 9.13027C17.537 9.02877 17.768 9.04277 17.9471 9.1641L30.7804 17.9141C30.9391 18.0226 31.0347 18.2029 31.0347 18.3959C31.0347 18.589 30.9391 18.7693 30.7798 18.8778Z" fill="#F42121"/>
</g>
<defs>
<filter id="filter0_d" x="0.201416" y="0.895935" width="43" height="43" filterUnits="userSpaceOnUse" color-interpolation-filters="sRGB">
<feFlood flood-opacity="0" result="BackgroundImageFix"/>
<feColorMatrix in="SourceAlpha" type="matrix" values="0 0 0 0 0 0 0 0 0 0 0 0 0 0 0 0 0 0 127 0"/>
<feOffset dy="4"/>
<feGaussianBlur stdDeviation="2"/>
<feColorMatrix type="matrix" values="0 0 0 0 0 0 0 0 0 0 0 0 0 0 0 0 0 0 0.25 0"/>
<feBlend mode="normal" in2="BackgroundImageFix" result="effect1_dropShadow"/>
<feBlend mode="normal" in="SourceGraphic" in2="effect1_dropShadow" result="shape"/>
</filter>
<clipPath id="clip0">
<rect width="35" height="35" fill="white" transform="translate(4.20142 0.895935)"/>
</clipPath>
</defs>
</svg>
