<svg width="451" height="451" viewBox="0 0 451 451" fill="none" xmlns="http://www.w3.org/2000/svg">
<path d="M447.05 428L337.45 318.4C366.85 284.6 384.65 240.5 384.65 192.3C384.65 86.2 298.35 0 192.35 0C86.2501 0 0.0500488 86.3 0.0500488 192.3C0.0500488 298.3 86.3501 384.6 192.35 384.6C240.55 384.6 284.65 366.8 318.45 337.4L428.05 447C430.65 449.6 434.15 451 437.55 451C440.95 451 444.45 449.7 447.05 447C452.25 441.8 452.25 433.2 447.05 428ZM26.9501 192.3C26.9501 101.1 101.15 27 192.25 27C283.45 27 357.55 101.2 357.55 192.3C357.55 283.4 283.45 357.7 192.25 357.7C101.15 357.7 26.9501 283.5 26.9501 192.3Z" fill="white"/>
</svg>
