<svg width="97" height="17" viewBox="0 0 97 17" fill="none" xmlns="http://www.w3.org/2000/svg">
<g clip-path="url(#clip0)">
<path d="M16.4986 7.68037C16.8135 7.37344 16.9247 6.92298 16.7889 6.50424C16.6527 6.0855 16.298 5.78658 15.8623 5.72314L11.9882 5.16023C11.8232 5.1362 11.6806 5.03271 11.607 4.88309L9.87496 1.37264C9.68048 0.978248 9.28577 0.733154 8.84588 0.733154C8.40631 0.733154 8.0116 0.978248 7.81713 1.37264L6.08481 4.88309C6.01112 5.03271 5.86823 5.1362 5.70323 5.16023L1.82914 5.72346C1.39374 5.78658 1.03907 6.0855 0.902909 6.50424C0.767066 6.92298 0.87824 7.37344 1.19318 7.68037L3.99622 10.4126C4.11572 10.5292 4.17051 10.6971 4.14232 10.8611L3.48072 14.7195C3.40639 15.153 3.581 15.5827 3.93695 15.8415C4.29258 16.1007 4.75553 16.1344 5.14544 15.929L8.61008 14.1073C8.75777 14.0298 8.93399 14.0298 9.08168 14.1073L12.5466 15.929C12.7158 16.0181 12.8991 16.0619 13.0814 16.0619C13.3181 16.0619 13.5539 15.9879 13.7551 15.8415C14.1111 15.5827 14.2857 15.153 14.2114 14.7195L13.5494 10.8615C13.5213 10.6971 13.576 10.5296 13.6955 10.4129L16.4986 7.68037ZM12.9183 10.9698L13.5799 14.8278C13.6132 15.022 13.5379 15.2075 13.3784 15.3235C13.2185 15.4391 13.0195 15.4532 12.8449 15.3622L9.37996 13.5402C9.21304 13.4527 9.02914 13.4085 8.84588 13.4085C8.66262 13.4085 8.47904 13.4527 8.3118 13.5405L4.84748 15.3622C4.67223 15.4532 4.47327 15.4391 4.31372 15.3235C4.15417 15.2075 4.0792 15.0223 4.1122 14.8278L4.77379 10.9698C4.83755 10.5975 4.7142 10.2175 4.4438 9.95414L1.64043 7.22158C1.49914 7.08382 1.45109 6.88966 1.51228 6.70224C1.57315 6.51449 1.72598 6.3857 1.92109 6.35718L5.79486 5.79427C6.16875 5.74012 6.49202 5.5056 6.65894 5.16664L8.39126 1.65618C8.4784 1.47933 8.64852 1.37392 8.84556 1.37392C9.04292 1.37392 9.21272 1.47933 9.30019 1.65618L11.0325 5.16664C11.1994 5.5056 11.5224 5.74012 11.8963 5.79427L15.7704 6.35718C15.9655 6.3857 16.1183 6.51449 16.1792 6.70224C16.24 6.88966 16.1923 7.08382 16.051 7.22158L13.248 9.95382C12.9776 10.2175 12.8542 10.5972 12.9183 10.9698Z" fill="#C4C4C4"/>
</g>
<g clip-path="url(#clip1)">
<path d="M36.4986 7.68037C36.8135 7.37344 36.9247 6.92298 36.7889 6.50424C36.6527 6.0855 36.298 5.78658 35.8623 5.72314L31.9882 5.16023C31.8232 5.1362 31.6806 5.03271 31.607 4.88309L29.875 1.37264C29.6805 0.978248 29.2858 0.733154 28.8459 0.733154C28.4063 0.733154 28.0116 0.978248 27.8171 1.37264L26.0848 4.88309C26.0111 5.03271 25.8682 5.1362 25.7032 5.16023L21.8291 5.72346C21.3937 5.78658 21.0391 6.0855 20.9029 6.50424C20.7671 6.92298 20.8782 7.37344 21.1932 7.68037L23.9962 10.4126C24.1157 10.5292 24.1705 10.6971 24.1423 10.8611L23.4807 14.7195C23.4064 15.153 23.581 15.5827 23.9369 15.8415C24.2926 16.1007 24.7555 16.1344 25.1454 15.929L28.6101 14.1073C28.7578 14.0298 28.934 14.0298 29.0817 14.1073L32.5466 15.929C32.7158 16.0181 32.8991 16.0619 33.0814 16.0619C33.3181 16.0619 33.5539 15.9879 33.7551 15.8415C34.1111 15.5827 34.2857 15.153 34.2114 14.7195L33.5494 10.8615C33.5213 10.6971 33.576 10.5296 33.6955 10.4129L36.4986 7.68037ZM32.9183 10.9698L33.5799 14.8278C33.6132 15.022 33.5379 15.2075 33.3784 15.3235C33.2185 15.4391 33.0195 15.4532 32.8449 15.3622L29.38 13.5402C29.213 13.4527 29.0291 13.4085 28.8459 13.4085C28.6626 13.4085 28.479 13.4527 28.3118 13.5405L24.8475 15.3622C24.6722 15.4532 24.4733 15.4391 24.3137 15.3235C24.1542 15.2075 24.0792 15.0223 24.1122 14.8278L24.7738 10.9698C24.8376 10.5975 24.7142 10.2175 24.4438 9.95414L21.6404 7.22158C21.4991 7.08382 21.4511 6.88966 21.5123 6.70224C21.5732 6.51449 21.726 6.3857 21.9211 6.35718L25.7949 5.79427C26.1687 5.74012 26.492 5.5056 26.6589 5.16664L28.3913 1.65618C28.4784 1.47933 28.6485 1.37392 28.8456 1.37392C29.0429 1.37392 29.2127 1.47933 29.3002 1.65618L31.0325 5.16664C31.1994 5.5056 31.5224 5.74012 31.8963 5.79427L35.7704 6.35718C35.9655 6.3857 36.1183 6.51449 36.1792 6.70224C36.24 6.88966 36.1923 7.08382 36.051 7.22158L33.248 9.95382C32.9776 10.2175 32.8542 10.5972 32.9183 10.9698Z" fill="#C4C4C4"/>
</g>
<g clip-path="url(#clip2)">
<path d="M56.4986 7.68037C56.8135 7.37344 56.9247 6.92298 56.7889 6.50424C56.6527 6.0855 56.298 5.78658 55.8623 5.72314L51.9882 5.16023C51.8232 5.1362 51.6806 5.03271 51.607 4.88309L49.875 1.37264C49.6805 0.978248 49.2858 0.733154 48.8459 0.733154C48.4063 0.733154 48.0116 0.978248 47.8171 1.37264L46.0848 4.88309C46.0111 5.03271 45.8682 5.1362 45.7032 5.16023L41.8291 5.72346C41.3937 5.78658 41.0391 6.0855 40.9029 6.50424C40.7671 6.92298 40.8782 7.37344 41.1932 7.68037L43.9962 10.4126C44.1157 10.5292 44.1705 10.6971 44.1423 10.8611L43.4807 14.7195C43.4064 15.153 43.581 15.5827 43.9369 15.8415C44.2926 16.1007 44.7555 16.1344 45.1454 15.929L48.6101 14.1073C48.7578 14.0298 48.934 14.0298 49.0817 14.1073L52.5466 15.929C52.7158 16.0181 52.8991 16.0619 53.0814 16.0619C53.3181 16.0619 53.5539 15.9879 53.7551 15.8415C54.1111 15.5827 54.2857 15.153 54.2114 14.7195L53.5494 10.8615C53.5213 10.6971 53.576 10.5296 53.6955 10.4129L56.4986 7.68037ZM52.9183 10.9698L53.5799 14.8278C53.6132 15.022 53.5379 15.2075 53.3784 15.3235C53.2185 15.4391 53.0195 15.4532 52.8449 15.3622L49.38 13.5402C49.213 13.4527 49.0291 13.4085 48.8459 13.4085C48.6626 13.4085 48.479 13.4527 48.3118 13.5405L44.8475 15.3622C44.6722 15.4532 44.4733 15.4391 44.3137 15.3235C44.1542 15.2075 44.0792 15.0223 44.1122 14.8278L44.7738 10.9698C44.8376 10.5975 44.7142 10.2175 44.4438 9.95414L41.6404 7.22158C41.4991 7.08382 41.4511 6.88966 41.5123 6.70224C41.5732 6.51449 41.726 6.3857 41.9211 6.35718L45.7949 5.79427C46.1687 5.74012 46.492 5.5056 46.6589 5.16664L48.3913 1.65618C48.4784 1.47933 48.6485 1.37392 48.8456 1.37392C49.0429 1.37392 49.2127 1.47933 49.3002 1.65618L51.0325 5.16664C51.1994 5.5056 51.5224 5.74012 51.8963 5.79427L55.7704 6.35718C55.9655 6.3857 56.1183 6.51449 56.1792 6.70224C56.24 6.88966 56.1923 7.08382 56.051 7.22158L53.248 9.95382C52.9776 10.2175 52.8542 10.5972 52.9183 10.9698Z" fill="#C4C4C4"/>
</g>
<g clip-path="url(#clip3)">
<path d="M76.4986 7.68037C76.8135 7.37344 76.9247 6.92298 76.7889 6.50424C76.6527 6.0855 76.298 5.78658 75.8623 5.72314L71.9882 5.16023C71.8232 5.1362 71.6806 5.03271 71.607 4.88309L69.875 1.37264C69.6805 0.978248 69.2858 0.733154 68.8459 0.733154C68.4063 0.733154 68.0116 0.978248 67.8171 1.37264L66.0848 4.88309C66.0111 5.03271 65.8682 5.1362 65.7032 5.16023L61.8291 5.72346C61.3937 5.78658 61.0391 6.0855 60.9029 6.50424C60.7671 6.92298 60.8782 7.37344 61.1932 7.68037L63.9962 10.4126C64.1157 10.5292 64.1705 10.6971 64.1423 10.8611L63.4807 14.7195C63.4064 15.153 63.581 15.5827 63.9369 15.8415C64.2926 16.1007 64.7555 16.1344 65.1454 15.929L68.6101 14.1073C68.7578 14.0298 68.934 14.0298 69.0817 14.1073L72.5466 15.929C72.7158 16.0181 72.8991 16.0619 73.0814 16.0619C73.3181 16.0619 73.5539 15.9879 73.7551 15.8415C74.1111 15.5827 74.2857 15.153 74.2114 14.7195L73.5494 10.8615C73.5213 10.6971 73.576 10.5296 73.6955 10.4129L76.4986 7.68037ZM72.9183 10.9698L73.5799 14.8278C73.6132 15.022 73.5379 15.2075 73.3784 15.3235C73.2185 15.4391 73.0195 15.4532 72.8449 15.3622L69.38 13.5402C69.213 13.4527 69.0291 13.4085 68.8459 13.4085C68.6626 13.4085 68.479 13.4527 68.3118 13.5405L64.8475 15.3622C64.6722 15.4532 64.4733 15.4391 64.3137 15.3235C64.1542 15.2075 64.0792 15.0223 64.1122 14.8278L64.7738 10.9698C64.8376 10.5975 64.7142 10.2175 64.4438 9.95414L61.6404 7.22158C61.4991 7.08382 61.4511 6.88966 61.5123 6.70224C61.5732 6.51449 61.726 6.3857 61.9211 6.35718L65.7949 5.79427C66.1687 5.74012 66.492 5.5056 66.6589 5.16664L68.3913 1.65618C68.4784 1.47933 68.6485 1.37392 68.8456 1.37392C69.0429 1.37392 69.2127 1.47933 69.3002 1.65618L71.0325 5.16664C71.1994 5.5056 71.5224 5.74012 71.8963 5.79427L75.7704 6.35718C75.9655 6.3857 76.1183 6.51449 76.1792 6.70224C76.24 6.88966 76.1923 7.08382 76.051 7.22158L73.248 9.95382C72.9776 10.2175 72.8542 10.5972 72.9183 10.9698Z" fill="#C4C4C4"/>
</g>
<g clip-path="url(#clip4)">
<path d="M96.4986 7.68037C96.8135 7.37344 96.9247 6.92298 96.7889 6.50424C96.6527 6.0855 96.298 5.78658 95.8623 5.72314L91.9882 5.16023C91.8232 5.1362 91.6806 5.03271 91.607 4.88309L89.875 1.37264C89.6805 0.978248 89.2858 0.733154 88.8459 0.733154C88.4063 0.733154 88.0116 0.978248 87.8171 1.37264L86.0848 4.88309C86.0111 5.03271 85.8682 5.1362 85.7032 5.16023L81.8291 5.72346C81.3937 5.78658 81.0391 6.0855 80.9029 6.50424C80.7671 6.92298 80.8782 7.37344 81.1932 7.68037L83.9962 10.4126C84.1157 10.5292 84.1705 10.6971 84.1423 10.8611L83.4807 14.7195C83.4064 15.153 83.581 15.5827 83.9369 15.8415C84.2926 16.1007 84.7555 16.1344 85.1454 15.929L88.6101 14.1073C88.7578 14.0298 88.934 14.0298 89.0817 14.1073L92.5466 15.929C92.7158 16.0181 92.8991 16.0619 93.0814 16.0619C93.3181 16.0619 93.5539 15.9879 93.7551 15.8415C94.1111 15.5827 94.2857 15.153 94.2114 14.7195L93.5494 10.8615C93.5213 10.6971 93.576 10.5296 93.6955 10.4129L96.4986 7.68037ZM92.9183 10.9698L93.5799 14.8278C93.6132 15.022 93.5379 15.2075 93.3784 15.3235C93.2185 15.4391 93.0195 15.4532 92.8449 15.3622L89.38 13.5402C89.213 13.4527 89.0291 13.4085 88.8459 13.4085C88.6626 13.4085 88.479 13.4527 88.3118 13.5405L84.8475 15.3622C84.6722 15.4532 84.4733 15.4391 84.3137 15.3235C84.1542 15.2075 84.0792 15.0223 84.1122 14.8278L84.7738 10.9698C84.8376 10.5975 84.7142 10.2175 84.4438 9.95414L81.6404 7.22158C81.4991 7.08382 81.4511 6.88966 81.5123 6.70224C81.5732 6.51449 81.726 6.3857 81.9211 6.35718L85.7949 5.79427C86.1687 5.74012 86.492 5.5056 86.6589 5.16664L88.3913 1.65618C88.4784 1.47933 88.6485 1.37392 88.8456 1.37392C89.0429 1.37392 89.2127 1.47933 89.3002 1.65618L91.0325 5.16664C91.1994 5.5056 91.5224 5.74012 91.8963 5.79427L95.7704 6.35718C95.9655 6.3857 96.1183 6.51449 96.1792 6.70224C96.24 6.88966 96.1923 7.08382 96.051 7.22158L93.248 9.95382C92.9776 10.2175 92.8542 10.5972 92.9183 10.9698Z" fill="#C4C4C4"/>
</g>
<defs>
<clipPath id="clip0">
<rect width="16" height="16" fill="white" transform="translate(0.845947 0.397705)"/>
</clipPath>
<clipPath id="clip1">
<rect width="16" height="16" fill="white" transform="translate(20.8459 0.397705)"/>
</clipPath>
<clipPath id="clip2">
<rect width="16" height="16" fill="white" transform="translate(40.8459 0.397705)"/>
</clipPath>
<clipPath id="clip3">
<rect width="16" height="16" fill="white" transform="translate(60.8459 0.397705)"/>
</clipPath>
<clipPath id="clip4">
<rect width="16" height="16" fill="white" transform="translate(80.8459 0.397705)"/>
</clipPath>
</defs>
</svg>
